<svg id="Capa_1" enable-background="new 0 0 512 512" height="512" viewBox="0 0 512 512" width="512" xmlns="http://www.w3.org/2000/svg"><g><g><path d="m106.9 153.317h-49.7v-30.133c0-4.418 3.582-8 8-8h33.7c4.418 0 8 3.582 8 8z" fill="#bdd3dd"/><path d="m98.9 115.183h-23c4.418 0 8 3.582 8 8v30.133h23v-30.133c0-4.418-3.582-8-8-8z" fill="#abc4d6"/><path d="m471.367 148.317h-27.268c-13.548 0-25.732-8.249-30.763-20.828l-16.471-41.177c-5.032-12.579-17.215-20.828-30.763-20.828h-137.37c-13.548 0-25.732 8.249-30.764 20.828l-16.471 41.177c-5.032 12.579-17.215 20.828-30.763 20.828h-110.101c-18.299 0-33.133 14.834-33.133 33.133v231.933c0 18.299 14.834 33.133 33.133 33.133h430.733c18.299 0 33.133-14.834 33.133-33.133v-231.933c.001-18.299-14.833-33.133-33.132-33.133z" fill="#868eaf"/><g fill="#7d83ad"><path d="m373.865 86.311 16.471 41.178c5.032 12.579 17.215 20.828 30.764 20.828h23c-13.548 0-25.732-8.249-30.764-20.828l-16.471-41.178c-5.032-12.579-17.215-20.828-30.763-20.828h-23c13.547 0 25.731 8.249 30.763 20.828z"/><path d="m471.367 148.317h-23c18.299 0 33.133 14.834 33.133 33.133v231.933c0 18.299-14.834 33.133-33.133 33.133h23c18.299 0 33.133-14.834 33.133-33.133v-231.933c0-18.299-14.834-33.133-33.133-33.133z"/></g><path d="m140.033 214.583v231.933h331.333c18.299 0 33.133-14.834 33.133-33.133v-198.8z" fill="#7d83ad"/><path d="m432.333 264.283h22.467c9.15 0 16.567 7.417 16.567 16.567s-7.417 16.567-16.567 16.567h-22.467z" fill="#f9f5f3"/><path d="m463.367 413.383h-17.133c-4.418 0-8-3.582-8-8v-17.133c0-4.418 3.582-8 8-8h17.133c4.418 0 8 3.582 8 8v17.133c0 4.419-3.582 8-8 8z" fill="#a0c8ff"/><path d="m173.167 446.517h-66.267v-25.133c0-4.418 3.582-8 8-8h50.267c4.418 0 8 3.582 8 8z" fill="#fa8ebb"/><path d="m165.167 413.383h-23c4.418 0 8 3.582 8 8v25.133h23v-25.133c0-4.418-3.582-8-8-8z" fill="#f57fb0"/><circle cx="305.7" cy="280.85" fill="#bdd3dd" r="132.533"/><circle cx="305.7" cy="280.85" fill="#868eaf" r="99.4"/><ellipse cx="305.7" cy="280.85" fill="#a0c8ff" rx="33.133" ry="33.133" transform="matrix(.996 -.089 .089 .996 -23.719 28.239)"/><path d="m305.7 148.317c-3.875 0-7.709.176-11.5.502 67.81 5.83 121.033 62.71 121.033 132.031s-53.223 126.201-121.033 132.031c3.791.326 7.625.502 11.5.502 73.196 0 132.533-59.337 132.533-132.533s-59.337-132.533-132.533-132.533z" fill="#abc4d6"/><path d="m305.7 181.45c-3.89 0-7.726.231-11.5.666 49.479 5.701 87.9 47.727 87.9 98.734s-38.421 93.033-87.9 98.734c3.774.435 7.61.666 11.5.666 54.897 0 99.4-44.503 99.4-99.4s-44.503-99.4-99.4-99.4z" fill="#7d83ad"/><path d="m305.7 247.717c-4.044 0-7.917.727-11.5 2.053 12.63 4.675 21.633 16.825 21.633 31.08s-9.004 26.405-21.633 31.08c3.583 1.326 7.456 2.053 11.5 2.053 18.299 0 33.133-14.834 33.133-33.133s-14.834-33.133-33.133-33.133z" fill="#91b2fa"/></g><g><path d="m305.7 173.95c-58.945 0-106.9 47.955-106.9 106.9s47.956 106.9 106.9 106.9 106.899-47.955 106.899-106.9-47.954-106.9-106.899-106.9zm0 198.8c-50.674 0-91.9-41.226-91.9-91.9s41.227-91.9 91.9-91.9 91.899 41.226 91.899 91.9-41.225 91.9-91.899 91.9z"/><path d="m305.7 240.217c-22.405 0-40.634 18.228-40.634 40.633s18.228 40.633 40.634 40.633c22.405 0 40.633-18.228 40.633-40.633s-18.228-40.633-40.633-40.633zm0 66.266c-14.135 0-25.634-11.499-25.634-25.633s11.499-25.633 25.634-25.633c14.134 0 25.633 11.499 25.633 25.633s-11.499 25.633-25.633 25.633z"/><path d="m471.367 140.817h-27.269c-10.542 0-19.884-6.325-23.799-16.114l-16.472-41.177c-6.206-15.517-21.015-25.543-37.728-25.543h-137.367c-16.712 0-31.521 10.026-37.727 25.542l-16.472 41.178c-3.915 9.789-13.257 16.113-23.799 16.113h-36.334v-17.634c0-8.547-6.953-15.5-15.5-15.5h-33.7c-8.547 0-15.5 6.953-15.5 15.5v17.634h-9.067c-22.405.001-40.633 18.229-40.633 40.634v231.933c0 22.405 18.228 40.633 40.633 40.633h66.267 66.267 21.353c4.142 0 7.5-3.358 7.5-7.5s-3.358-7.5-7.5-7.5h-13.853v-17.633c0-8.547-6.953-15.5-15.5-15.5h-17.633v-183.8h31.08c-8.301 17.881-12.946 37.79-12.946 58.767 0 77.214 62.819 140.033 140.034 140.033 69.01 0 126.514-50.18 137.957-115.967h11.141c13.271 0 24.067-10.796 24.067-24.066 0-13.271-10.797-24.067-24.067-24.067h-11.143c-2.118-12.175-5.815-23.813-10.87-34.7h64.213v47.517c0 4.142 3.357 7.5 7.5 7.5s7.5-3.358 7.5-7.5v-88.15c0-22.405-18.228-40.633-40.633-40.633zm-406.667-17.634c0-.276.224-.5.5-.5h33.7c.276 0 .5.224.5.5v17.634h-34.7zm-24.067 32.634h16.567 49.7 25.633v51.267h-117.533v-25.634c0-14.134 11.499-25.633 25.633-25.633zm125.033 265.566v17.633h-51.266v-17.633c0-.276.224-.5.5-.5h50.267c.275 0 .499.224.499.5zm-33.133-15.5h-17.633c-8.547 0-15.5 6.953-15.5 15.5v17.633h-58.767c-14.134.001-25.633-11.498-25.633-25.633v-75.333h25.633c4.142 0 7.5-3.358 7.5-7.5s-3.358-7.5-7.5-7.5h-25.633v-18.133h25.633c4.142 0 7.5-3.358 7.5-7.5s-3.358-7.5-7.5-7.5h-25.633v-18.133h25.633c4.142 0 7.5-3.358 7.5-7.5s-3.358-7.5-7.5-7.5h-25.633v-34.7h117.533zm173.167 0c-68.944 0-125.034-56.09-125.034-125.033s56.09-125.033 125.034-125.033c68.943 0 125.033 56.09 125.033 125.033s-56.089 125.033-125.033 125.033zm149.1-134.1c5 0 9.067 4.067 9.067 9.067 0 4.999-4.067 9.066-9.067 9.066h-9.368c.193-2.999.302-6.02.302-9.066 0-3.047-.109-6.068-.302-9.067zm-30.124-64.7c-24.734-39.748-68.813-66.267-118.976-66.267s-94.242 26.518-118.976 66.267h-39.191v-51.267h3.201c16.712 0 31.521-10.026 37.727-25.543l16.471-41.178c3.916-9.789 13.258-16.113 23.8-16.113h137.368c10.543 0 19.885 6.325 23.8 16.114l16.472 41.177c6.206 15.517 21.015 25.543 37.727 25.543h27.269c14.134 0 25.633 11.499 25.633 25.633v25.633h-72.325z"/><path d="m504.5 292.1c-4.143 0-7.5 3.358-7.5 7.5v113.784c0 14.134-11.499 25.633-25.633 25.633h-246.848c-4.142 0-7.5 3.358-7.5 7.5s3.358 7.5 7.5 7.5h246.849c22.405 0 40.633-18.228 40.633-40.633v-113.784c-.001-4.143-3.358-7.5-7.501-7.5z"/><path d="m355.4 107.683h-115.967c-4.142 0-7.5 3.358-7.5 7.5s3.358 7.5 7.5 7.5h115.967c4.143 0 7.5-3.358 7.5-7.5s-3.357-7.5-7.5-7.5z"/><path d="m471.367 420.883c4.143 0 7.5-3.358 7.5-7.5v-33.133c0-4.142-3.357-7.5-7.5-7.5h-33.134c-4.143 0-7.5 3.358-7.5 7.5v33.133c0 4.142 3.357 7.5 7.5 7.5zm-25.634-33.133h18.134v18.133h-18.134z"/></g></g></svg>