<svg id="Layer_1_1_" enable-background="new 0 0 256 256" height="512" viewBox="0 0 256 256" width="512" xmlns="http://www.w3.org/2000/svg"><path d="m246.354 93.912-20.354 5.088-36 1-29-3-14.368-1.948c-.602-.082-1.202-.094-1.791-.044l-2.212 16.324c.499.223 1.024.397 1.568.516 6.488 1.424 13.17 1.747 19.766.956l15.037-1.804 27-3 15-2 8 1 10-5 8.838-2.41c1.277-.348 2.162-1.508 2.162-2.831 0-1.91-1.794-3.311-3.646-2.847z" fill="#f5d3a6"/><path d="m165.101 108.135c-7.307-.834-13.253-5.903-15.42-12.67l-3.049-.413c-.602-.082-1.202-.094-1.791-.044l-2.212 16.324c.499.223 1.024.397 1.568.516 6.488 1.424 13.17 1.747 19.766.956l15.037-1.804 5.677-.631z" fill="#f0c792"/><path d="m61.639 26.197 22.361 15.803 13 10 25.625 12.813c4.153 2.076 7.581 5.359 9.836 9.418.989 1.779 1.264 3.868.77 5.843-.752 3.008-3.17 5.314-6.211 5.922l-1.102.22c-2.468.494-5.024-.199-6.905-1.871l-6.013-5.345-24-20-28.705-23.295z" fill="#f5d3a6"/><path d="m142.988 88.055c-.867-2.164-2.166-4.129-3.733-5.855-3.826-4.217-9.824-5.699-15.174-3.75l-8.299 3.024-9.64 11.597c-2.039 2.549-4.858 4.358-8.024 5.149-.883.221-3.43.211-6.047.128l.516 9.409c.717 5.369 1.998 10.647 3.822 15.748l2.812 7.244.292.006c7.627.163 22.487-5.755 22.487-5.755 8.751-2.1 16.265-4.705 20.17-12.814 3.672-7.628 3.92-16.388.818-24.131z" fill="#7f8b4b"/><path d="m83 189v-47.636c0-4.075 1.619-7.983 4.5-10.864 0 0-5.5-9.5-5.5-17.5s3-15 3-15l-5.625-3.937c-2.87-2.009-6.203-3.255-9.687-3.622l-9.539-1.004c-2.738-.288-5.391-1.121-7.803-2.449l-26.687-14.195c1.494-1.046 3.253-2.473 5.393-4.626-4.627-2.73-10.723-4.76-15.91-4.653l-2.692-.002c-4.146 4.527-7.163 7.913-7.45 8.488-.676 1.352 1.39 5.447 2.8 7.958.733 1.306 1.736 2.433 2.947 3.316l46.253 33.726s4 30 8 40c3.366 8.416 2.483 26.744 2.119 32.341h15.874z" fill="#514654"/><path d="m105.741 245.664-11.712-2.726c-2.633-.613-5.042-1.951-6.954-3.863l-.701-.701c-2.794-2.793-4.324-6.607-4.236-10.557l.855-38.475h-15.874c-.069 1.053-.119 1.658-.119 1.658l-.216 2.811c-.519 6.745.095 13.529 1.817 20.071l.404 1.535c1.324 5.035 1.995 10.218 1.995 15.424v13.038c0 1.358.54 2.661 1.5 3.621s2.263 1.5 3.621 1.5h29.182c.937 0 1.697-.76 1.697-1.697 0-.768-.517-1.441-1.259-1.639z" fill="#f5d3a6"/><path d="m102.025 69.854c-.258-.489-.506-.945-.739-1.354-2.571-4.5-33-29.786-36-33.857-1.907-2.588-2.254-5.605-2.255-7.462l-1.391-.983-1.345 9.509 28.705 23.293z" fill="#f0c792"/><path d="m31.052 68.167c.02-.02.039-.039.058-.059l-.009-.006.009.006c.895-.903 1.85-1.919 2.89-3.108 4.964-5.673 10.934-17.381 13.987-23.712 1.236-2.563 3.969-4.044 6.793-3.691 2.032.254 4.067-.444 5.514-1.892l.195-.195c1.569-1.569 2.25-3.817 1.814-5.993l-.857-4.286c-.289-1.447-.088-2.949.572-4.268l2.453-4.906c.35-.7.573-1.457.66-2.234l.488-4.391c.203-1.83-1.231-3.432-3.073-3.432-.973 0-1.889.458-2.473 1.237l-7.013 9.35-7.244 9.659-5.816 7.754s-17.265 18.281-27.55 29.511l2.692.002c5.188-.107 11.283 1.924 15.91 4.654z" fill="#f5d3a6"/><path d="m49.567 32.251 6.449-3.89c.355-.214.612-.547.717-.932l2.713-9.871c.16-.582-.046-1.199-.531-1.59l-3.36-2.709-2.496 3.328-7.244 9.659-1.795 2.393 3.434 3.375c.554.544 1.44.643 2.113.237z" fill="#f0c792"/><path d="m53.651 17.094-3.187-2.732c-.401-.344-1.001-.316-1.369.063l-6.675 6.883c-.374.386-.376.999-.004 1.388l4.389 4.585c.331.345.859.408 1.262.15l3.852-2.469c.212-.136.365-.347.428-.591l1.621-6.266c.096-.371-.027-.762-.317-1.011z" fill="#f5d3a6"/><path d="m40.874 80.886-15.215-8.093-7.087 1.064s9.269 2.041 16.929 5.143c1.408.571 3.272 1.215 5.373 1.886z" fill="#403742"/><path d="m96.41 123.505c-1.824-5.101-3.105-10.379-3.822-15.748l-.516-9.409c-3.474-.109-7.072-.348-7.072-.348s-3 7-3 15 5.5 17.5 5.5 17.5l11.722.25z" fill="#f5d3a6"/><path d="m142.734 76.013-5.268 4.214 4.136 15.337 10.664-11.431z" fill="#f0c792"/><path d="m141.146 71.442c-.657-2.98-.862-6.084-.874-8.682-.03-6.467 5.088-13.963 11.132-16.272 5.232-1.998 11.671-1.099 16.441 1.607 3.052 1.731 5.692 5.665 6.131 9.162.083.663.14 1.415.178 2.212-.013-.001-19.57-.865-33.008 11.973z" fill="#704c0f"/><path d="m141.146 71.442c13.438-12.838 32.996-11.974 33.007-11.974.218 4.578-.214 10.703-.214 10.703l1.725 6.224-4.841 1.342s-1.041 6.991-3.616 8.449c-5.149 2.916-12.64-.347-14.551-1.161-2.473-1.054-4.74-2.837-6.787-4.561-2.524-2.126-3.944-5.486-4.723-9.022z" fill="#f5d3a6"/><path d="m150.964 46.681c-4.35 1.857-8.161 6.35-9.816 11.133-2.837-.657-4.971-3.151-5.847-6.145-1.292-4.415 1.239-9.042 5.655-10.334 4.217-1.234 8.516 1.269 10.029 5.322z" fill="#704c0f"/><g fill="#5e400d"><path d="m135.301 51.669c-.181-.619-.28-1.242-.316-1.86.038.064.076.127.115.189 1.766 2.859 5.881 2.837 7.785.068 1.703-2.477 3.833-4.702 6.192-6.435.816.852 1.477 1.873 1.908 3.027l-.021.024c-4.35 1.857-8.161 6.35-9.816 11.133-2.837-.658-4.97-3.152-5.847-6.146z"/><path d="m161.321 50.286c-3.786-2.669-10.562-2.069-13.68-1.609.381-.299.769-.578 1.166-.837 3.519-.413 9.344-.606 12.899 1.901 3.614 2.548 5.503 7.253 6.349 10.036-.224.025-.452.051-.685.08-.847-2.714-2.68-7.196-6.049-9.571z"/><path d="m155.885 55.739c-3.858-2.244-9.372-3.255-11.651-3.596.158-.206.323-.405.488-.605 2.514.393 7.709 1.421 11.498 3.624 2.715 1.578 4.427 3.865 5.453 5.705-.227.053-.457.109-.688.165-.998-1.738-2.618-3.85-5.1-5.293z"/><path d="m141.786 56.235c.167-.37.344-.737.534-1.1.176 1.753.727 4.187 2.077 7.442.713 1.719 1.426 3.248 2.111 4.608-.186.123-.37.253-.555.379-.705-1.395-1.439-2.964-2.172-4.732-1.131-2.724-1.718-4.896-1.995-6.597z"/></g><path d="m69.786 122.821c-3.215-1.928-12.786-5.821-12.786-5.821s2.428 18.209 5.393 30.984c-.004-.062-1.286-22.915-1.286-25.162 0-2.251 11.893 1.928 8.679-.001z" fill="#403742"/></svg>